Coordinates
version=1
nRows=7
nColumns=40
inDegrees=yes

Units are S.I. units (second, meters, Newtons, ...)
If the header above contains a line with 'inDegrees', this indicates whether rotational values are in degrees (yes) or radians (no).

endheader
time	pelvis_tilt	pelvis_list	pelvis_rotation	pelvis_tx	pelvis_ty	pelvis_tz	hip_flexion_r	hip_adduction_r	hip_rotation_r	knee_angle_r	knee_angle_r_beta	ankle_angle_r	subtalar_angle_r	mtp_angle_r	hip_flexion_l	hip_adduction_l	hip_rotation_l	knee_angle_l	knee_angle_l_beta	ankle_angle_l	subtalar_angle_l	mtp_angle_l	lumbar_extension	lumbar_bending	lumbar_rotation	arm_flex_r	arm_add_r	arm_rot_r	elbow_flex_r	pro_sup_r	wrist_flex_r	wrist_dev_r	arm_flex_l	arm_add_l	arm_rot_l	elbow_flex_l	pro_sup_l	wrist_flex_l	wrist_dev_l
      0.58000000	      0.45137981	     -2.20258308	     -8.19952699	     -0.04437373	      0.89530473	      0.27351697	    -20.16375767	     -2.20012319	    -14.59966823	     13.60079932	      0.23737873	      8.13492508	     16.00053196	      0.00000000	     26.65822912	     -9.77448115	    -25.60944950	      8.59182004	      0.14995555	      0.23973119	      9.66884688	      0.00000000	     -2.00971369	      0.49045688	     -1.35730310	     37.75534710	    -14.75692270	     37.75534710	     76.76008486	     44.88694966	      0.00000000	      0.00000000	     37.75534710	    -14.75692270	     37.75534710	     76.76008486	     44.88694966	      0.00000000	      0.00000000
      0.58500000	      0.61266092	     -1.97816271	     -8.35615493	     -0.03600731	      0.89486450	      0.27324598	    -20.62405240	     -2.66012658	    -14.31593293	     13.93156831	      0.24315174	      7.62672465	     15.80634185	      0.00000000	     26.32563077	     -9.61054795	    -25.37978649	      9.30883610	      0.16246984	      0.08742997	      8.92149982	      0.00000000	     -1.85515817	      0.16262369	     -1.14088715	     37.75759574	    -14.75704702	     37.75759574	     76.75832059	     44.88726390	      0.00000000	      0.00000000	     37.75759574	    -14.75704702	     37.75759574	     76.75832059	     44.88726390	      0.00000000	      0.00000000
      0.59000000	      0.92050689	     -1.32495965	     -8.82304848	     -0.02804147	      0.89479471	      0.27355893	    -20.99428158	     -3.69390227	    -13.92352168	     14.54026888	      0.25377557	      7.22212235	     14.96673313	      0.00000000	     25.64150935	     -8.96281792	    -25.15190974	      9.60875793	      0.16770446	     -0.36229590	      6.42141176	      0.00000000	     -2.09525075	     -0.78097763	     -0.28033518	     37.77466733	    -14.75799023	     37.77466733	     76.74496150	     44.88962550	      0.00000000	      0.00000000	     37.77466733	    -14.75799023	     37.77466733	     76.74496150	     44.88962550	      0.00000000	      0.00000000
      0.59500000	      1.31894942	     -0.60534199	     -9.06560374	     -0.01962187	      0.89482679	      0.27311885	    -21.57670152	     -4.77826975	    -13.79001387	     14.96171851	      0.26113125	      6.26746628	     14.49435514	      0.00000000	     24.79848999	     -8.03216449	    -24.88957275	      9.44571010	      0.16485874	     -1.75727115	      4.47427383	      0.00000000	     -2.23667451	     -1.48119121	      0.59435268	     37.80543111	    -14.75968623	     37.80543111	     76.72106910	     44.89376781	      0.00000000	      0.00000000	     37.80543111	    -14.75968623	     37.80543111	     76.72106910	     44.89376781	      0.00000000	      0.00000000
      0.60000000	      1.52474761	     -0.18121136	     -9.32590999	     -0.01146113	      0.89474860	      0.27272817	    -21.87196702	     -5.51414660	    -13.45450792	     15.57718636	      0.27187319	      5.69162190	     14.00645513	      0.00000000	     24.28818171	     -7.50832050	    -24.75294904	      9.49246827	      0.16567483	     -3.44023581	      2.71582430	      0.00000000	     -2.28562430	     -2.04141683	      1.00887548	     37.82435643	    -14.76072736	     37.82435643	     76.70647938	     44.89624958	      0.00000000	      0.00000000	     37.82435643	    -14.76072736	     37.82435643	     76.70647938	     44.89624958	      0.00000000	      0.00000000
      0.60500000	      1.66672527	     -0.00101271	     -9.39685045	     -0.00345158	      0.89478776	      0.27203687	    -22.15878637	     -5.91962746	    -13.26657337	     16.03391947	      0.27984469	      4.52034177	     13.49641795	      0.00000000	     24.12503656	     -7.33321458	    -24.97755188	     10.15799573	      0.17729047	     -4.61866815	      1.94979214	      0.00000000	     -2.30409955	     -2.29347176	      1.17119049	     37.82756084	    -14.76090345	     37.82756084	     76.70401809	     44.89666451	      0.00000000	      0.00000000	     37.82756084	    -14.76090345	     37.82756084	     76.70401809	     44.89666451	      0.00000000	      0.00000000
      0.61000000	      2.01952405	      0.57067926	     -9.72302673	      0.00428999	      0.89550565	      0.27162203	    -22.53441654	     -6.81001014	    -12.66526168	     16.54378252	      0.28874348	      3.37011436	     12.05293134	      0.00000000	     23.56718748	     -6.69128104	    -25.08524335	     10.48507376	      0.18299906	     -5.47238438	      0.46388476	      0.00000000	     -2.57465476	     -3.08000708	      1.76167258	     37.84614991	    -14.76192407	     37.84614991	     76.68978498	     44.89904351	      0.00000000	      0.00000000	     37.84614991	    -14.76192407	     37.84614991	     76.68978498	     44.89904351	      0.00000000	      0.00000000
